<svg xmlns="http://www.w3.org/2000/svg" viewBox="0 0 800 600" preserveAspectRatio="xMidYMid slice">
<defs><linearGradient id="sky" x1="0" y1="0" x2="0" y2="1"><stop offset="0" stop-color="#ecc9a0"/><stop offset="1" stop-color="#f4e9cc"/></linearGradient><symbol id="cow" viewBox="0 0 100 64"><path d="M18 18Q20 12 30 12H72Q80 12 84 16L92 14Q97 14 98 19L97 27Q96 31 91 31H87Q84 40 80 42V60H75L74 44H60L58 60H53L52 44H38L36 60H31L30 44Q24 43 22 38V60H17V34Q15 28 18 18Z"/><path d="M18 20Q10 24 10 38" fill="none" stroke="currentColor" stroke-width="2.5" stroke-linecap="round"/></symbol></defs>
<rect width="800" height="600" fill="url(#sky)"/>
<circle cx="586.2" cy="120.0" r="42.0" fill="#fffdf8" opacity="0.7"/>
<path d="M0 600L0 271.4C66.7 271.4 66.7 270.0 133.3 270.0C200.0 270.0 200.0 263.4 266.7 263.4C333.3 263.4 333.3 274.1 400.0 274.1C466.7 274.1 466.7 270.1 533.3 270.1C600.0 270.1 600.0 270.1 666.7 270.1C733.3 270.1 733.3 264.5 800.0 264.5L800 600Z" fill="#b59a6a"/>
<path d="M0 600L0 353.1C66.7 353.1 66.7 332.8 133.3 332.8C200.0 332.8 200.0 307.2 266.7 307.2C333.3 307.2 333.3 335.8 400.0 335.8C466.7 335.8 466.7 353.4 533.3 353.4C600.0 353.4 600.0 316.3 666.7 316.3C733.3 316.3 733.3 346.0 800.0 346.0L800 600Z" fill="#7c6a45"/>
<path d="M0 600L0 403.6C66.7 403.6 66.7 398.5 133.3 398.5C200.0 398.5 200.0 381.3 266.7 381.3C333.3 381.3 333.3 379.7 400.0 379.7C466.7 379.7 466.7 384.9 533.3 384.9C600.0 384.9 600.0 407.0 666.7 407.0C733.3 407.0 733.3 385.9 800.0 385.9L800 600Z" fill="#4a4630"/>
<g fill="#231c16" color="#231c16"><use href="#cow" x="49.9" y="353.6" width="39.9" height="25.5" transform="translate(139.7 0) scale(-1 1)"/><use href="#cow" x="408.4" y="365.4" width="42.3" height="27.1"/><use href="#cow" x="13.0" y="386.6" width="45.5" height="29.1"/><use href="#cow" x="608.7" y="380.8" width="57.9" height="37.1" transform="translate(1275.3 0) scale(-1 1)"/><use href="#cow" x="663.7" y="386.7" width="58.0" height="37.1" transform="translate(1385.4 0) scale(-1 1)"/><use href="#cow" x="196.8" y="419.9" width="51.5" height="33.0" transform="translate(445.0 0) scale(-1 1)"/><use href="#cow" x="632.0" y="425.1" width="54.5" height="34.9"/><use href="#cow" x="497.9" y="460.9" width="74.1" height="47.4"/></g>
<g fill="#5b4632" opacity="0.9"><rect x="48" y="276" width="12.8" height="144"/><rect x="240" y="276" width="12.8" height="144"/><rect x="48" y="288.0" width="204.8" height="7.2"/><rect x="48" y="315.0" width="204.8" height="7.2"/><rect x="48" y="342.0" width="204.8" height="7.2"/><rect x="48" y="369.0" width="204.8" height="7.2"/><path d="M56.00000000000001 378.0L248 294.0" stroke="#4a4630" stroke-width="7.2"/></g>
</svg>
